<svg xmlns="http://www.w3.org/2000/svg" viewBox="0 0 512 512">
  <rect width="512" height="512" rx="112" fill="#3578bc"/>
  <path d="M0 0h220v58c0 35-28 63-63 63H0z" fill="#18324d"/>
  <path d="M512 512H292v-58c0-35 28-63 63-63h157z" fill="#f89b32"/>
  <path d="M116 342 222 126h67L187 342z" fill="#f89b32"/>
  <path d="M255 126h66l106 216h-70l-69-150-66 150h-68z" fill="#fff"/>
  <path d="M196 266h175v25H184z" fill="#f89b32"/>
  <path d="M219 246h13v65h-13zm46 0h13v65h-13zm46 0h13v65h-13z" fill="#18324d"/>
  <text x="256" y="417" fill="#fff" font-family="Segoe UI Variable,Arial,sans-serif" font-size="40" font-weight="800" text-anchor="middle" letter-spacing="8">ATLAS</text>
</svg>
